<svg xmlns="http://www.w3.org/2000/svg" viewBox="0 0 124 124" id="swiggy"><path fill="#f0851d" d="M23.1 41.5c.2-1.2.2-2.5.4-3.7 1-4.3 2.7-8.4 5.5-11.9 2-2.5 4-5.1 6.4-7.1 2.9-2.3 6.2-4.2 9.4-6 4.5-2.6 9.7-3 14.7-3.3 2.6-.1 5.2.6 7.8 1.1 6.2 1.1 11.6 3.9 16.2 8.1 5.7 5.1 9.4 11.6 11.3 19 1 3.5.2 5.7-2.7 6.5-3.1.8-6.3 1.3-9.5 1.7-2.6.3-5.2.3-7.8.4-.6 0-1.3-.1-2-.2-.9-.1-1.9-.3-2.8-.3-1.1-.1-2.2 0-3.7 0-.1-3-.2-5.5-.3-8.1 0-2 .2-4-.1-5.9-.1-.9-1.2-2.2-1.9-2.3-1.3-.2-2.2.9-2.2 2.4v.5c0 4.8.1 9.6 0 14.4-.1 3.7.9 3.9 4.1 4.2 4.2.4 8.4 0 12.6.1 3.3.1 6.6.1 9.8.7 3 .6 5.6 3 5.2 5.7-.3 2.1-.5 4.2-1.1 6.1-1 3.1-2.1 6.2-3.5 9.1-1.7 3.8-3.4 7.7-5.7 11.3-4.8 7.5-9.8 14.8-15 22-2.4 3.4-5.4 6.5-8.1 9.7-.7.8-1.2.8-1.9-.2-3.1-4.4-6.3-8.7-9.6-13-3.8-5-7.2-10.4-10-16-1-2.1-.8-2.5 1.4-3 1.6-.4 3.3-.7 5-.7 3.7-.1 7.4-.1 11.1 0 1.5 0 2 1 1.9 2.4-.1 2-.1 4.1 0 6.1.1 1.3.6 2.5 2.1 2.8 1.6.3 2.2-.8 2.6-2.1.2-.6.3-1.3.3-1.9v-9.2c0-3.3-1-4.3-4.3-4.2-3.6.1-7.1.4-10.7.5-3.2.1-6.4.1-9.5 0-1.5-.1-3.3-.3-4.5-1.1-1.7-1.2-3.3-2.9-4.2-4.8-4.2-8.1-6.3-16.8-6.8-26"/></svg>